<svg xmlns="http://www.w3.org/2000/svg" xmlns:xlink="http://www.w3.org/1999/xlink" viewBox="0,0,256,256" width="80px" height="80px" fill-rule="nonzero"><g fill="#ffffff" fill-rule="nonzero" stroke="none" stroke-width="1" stroke-linecap="butt" stroke-linejoin="miter" stroke-miterlimit="10" stroke-dasharray="" stroke-dashoffset="0" font-family="none" font-weight="none" font-size="none" text-anchor="none" style="mix-blend-mode: normal"><g transform="scale(3.2,3.2)"><path d="M72.6875,12.74609l-2.26562,1.34375c-2.30078,1.36328 -4.84766,2.34375 -7.54687,2.92578c-2.53125,-2.46875 -5.96875,-4.02344 -9.78125,-4.02344c-7.75391,0 -14.06641,6.3125 -14.06641,14.07031c0,0.61328 0.125,1.19531 0.20313,1.79297c-10.07031,-0.84375 -18.99219,-5.70312 -25.02734,-13.10156l-0.91016,-1.12109l-0.72656,1.25c-1.21094,2.07812 -1.90625,4.49609 -1.90625,7.07031c0,3.54297 1.33984,6.76563 3.50391,9.24219c-0.73437,-0.24219 -1.45703,-0.50391 -2.12109,-0.87109l-1.48437,-0.82812v1.86328c0,5.23828 2.89844,9.76953 7.15625,12.1875c-0.46484,-0.03125 -0.9375,-0.04297 -1.38672,-0.12891l-1.65625,-0.31641l0.51563,1.60156c1.52734,4.76953 5.58594,8.25781 10.54297,9.30469c-3.94141,2.53125 -8.57812,4.05859 -13.61328,4.05859c-1.01562,0 -2.01562,-0.05469 -3,-0.17578l-4.32031,-0.51562l3.66406,2.35547c5.9375,3.80469 12.99609,6.02344 20.57031,6.02344c12.29297,0 21.89063,-5.12109 28.35156,-12.45312c6.46094,-7.32812 9.82422,-16.83594 9.82422,-25.72266c0,-0.42187 -0.01172,-0.83594 -0.02344,-1.25c2.45703,-1.85547 4.625,-4.08984 6.33984,-6.65234l1.91797,-2.87109l-3.15625,1.40234c-1.17969,0.52734 -2.38672,0.94141 -3.625,1.27734c1.40234,-1.5 2.57422,-3.19922 3.22656,-5.23047zM53.09375,14.99219c3.47656,0 6.60938,1.46484 8.8125,3.8125l0.375,0.40234l0.54688,-0.10547c2.05469,-0.40625 3.98438,-1.11719 5.84375,-1.95312c-0.97656,1.64453 -2.17969,3.10547 -3.84766,4.10547l-0.79687,0.47656l0.75391,1.50391l0.69922,-0.08203c1.45703,-0.17969 2.84766,-0.48828 4.19922,-0.88281c-1.24219,1.39844 -2.57812,2.71094 -4.09375,3.80859l-0.43359,0.3125l0.01953,0.53906c0.02344,0.54688 0.03516,1.09766 0.03516,1.64844c0,8.37891 -3.20312,17.46094 -9.32422,24.40234c-6.12109,6.94141 -15.10937,11.77344 -26.85156,11.77344c-5.73828,0 -11.12891,-1.38672 -15.94531,-3.76953c5.96875,-0.21094 11.47656,-2.27344 15.87891,-5.72266l2.21094,-1.73437l-2.8125,-0.05469c-4.70312,-0.08594 -8.62109,-2.92969 -10.53516,-6.91406c0.25781,0.01563 0.50391,0.07422 0.76563,0.07422c1.28516,0 2.53125,-0.17187 3.71094,-0.49219l4.07031,-1.11719l-4.14062,-0.83203c-5.04687,-1.01172 -8.79297,-5.22266 -9.42578,-10.40625c1.45703,0.57031 2.99219,0.99219 4.63281,1.04297l3.49609,0.11328l-2.90625,-1.94141c-3.23828,-2.16406 -5.37109,-5.85156 -5.37109,-10.04687c0,-1.73437 0.45703,-3.33203 1.10938,-4.82031c6.59375,7.4375 15.95703,12.375 26.54297,12.90234l1.32422,0.07031l-0.29687,-1.29297c-0.20703,-0.88281 -0.3125,-1.80469 -0.3125,-2.75c0,-6.67578 5.39453,-12.07031 12.06641,-12.07031zM53,17c-0.55078,0 -1,0.44922 -1,1c0,0.55078 0.44922,1 1,1c0.55078,0 1,-0.44922 1,-1c0,-0.55078 -0.44922,-1 -1,-1zM48.47266,18.20313c-0.16406,0.00781 -0.32812,0.05078 -0.47266,0.13672c-0.48047,0.27734 -0.64453,0.88672 -0.36719,1.36328c0.27734,0.48047 0.88672,0.64453 1.36719,0.37109c0.22656,-0.13281 0.39453,-0.35156 0.46484,-0.60937c0.07031,-0.25781 0.03516,-0.53125 -0.10156,-0.76172c-0.17969,-0.31641 -0.52344,-0.50781 -0.89062,-0.5zM45.15625,21.5c-0.33594,0.01953 -0.64453,0.20703 -0.81641,0.5c-0.13281,0.23047 -0.16797,0.50391 -0.10156,0.75781c0.07031,0.25781 0.23828,0.47656 0.46484,0.60938c0.48047,0.27734 1.08984,0.10938 1.36719,-0.36719c0.27734,-0.47656 0.11328,-1.08984 -0.36719,-1.36328c-0.16406,-0.09766 -0.35547,-0.14453 -0.54687,-0.13672zM44,26c-0.55078,0 -1,0.44922 -1,1c0,0.55078 0.44922,1 1,1c0.55078,0 1,-0.44922 1,-1c0,-0.55078 -0.44922,-1 -1,-1zM24,35c-0.55078,0 -1,0.44922 -1,1c0,0.55078 0.44922,1 1,1c0.55078,0 1,-0.44922 1,-1c0,-0.55078 -0.44922,-1 -1,-1zM28,36c-0.55078,0 -1,0.44922 -1,1c0,0.55078 0.44922,1 1,1c0.55078,0 1,-0.44922 1,-1c0,-0.55078 -0.44922,-1 -1,-1zM32,37c-0.55078,0 -1,0.44922 -1,1c0,0.55078 0.44922,1 1,1c0.55078,0 1,-0.44922 1,-1c0,-0.55078 -0.44922,-1 -1,-1zM29,44c-0.55078,0 -1,0.44922 -1,1c0,0.55078 0.44922,1 1,1c0.55078,0 1,-0.44922 1,-1c0,-0.55078 -0.44922,-1 -1,-1zM33,44c-0.55078,0 -1,0.44922 -1,1c0,0.55078 0.44922,1 1,1c0.55078,0 1,-0.44922 1,-1c0,-0.55078 -0.44922,-1 -1,-1zM34,51c-0.55078,0 -1,0.44922 -1,1c0,0.55078 0.44922,1 1,1c0.55078,0 1,-0.44922 1,-1c0,-0.55078 -0.44922,-1 -1,-1z"></path></g></g></svg>