<svg xmlns="http://www.w3.org/2000/svg" xmlns:xlink="http://www.w3.org/1999/xlink" viewBox="0,0,256,256" width="50px" height="50px" fill-rule="nonzero"><g fill="#ffffff" fill-rule="nonzero" stroke="none" stroke-width="1" stroke-linecap="butt" stroke-linejoin="miter" stroke-miterlimit="10" stroke-dasharray="" stroke-dashoffset="0" font-family="none" font-weight="none" font-size="none" text-anchor="none" style="mix-blend-mode: normal"><g transform="scale(5.12,5.12)"><path d="M26,2c-12.74098,0 -23,10.36005 -23,23c0,12.64545 10.35455,23 23,23c9.90035,0 15.9518,-4.57361 19.09961,-10.22656c3.14781,-5.65295 3.53227,-12.27556 2.57813,-16.78125l-0.16602,-0.78906l-22.51172,-0.10742v1.00391v9.40039h11.43164c-1.74478,3.99153 -5.19876,6.69922 -10.43164,6.69922c-6.76119,0 -12.30078,-5.43937 -12.30078,-12.29883c0,-6.85946 5.53046,-12.20117 12.30078,-12.20117c3.05758,0 5.81881,1.10764 7.94336,2.95508l0.70508,0.61133l7.60547,-7.60547l-0.78516,-0.70508c-4.07382,-3.65599 -9.51144,-5.95508 -15.46875,-5.95508zM26,4c5.05834,0 9.65934,1.86406 13.28125,4.80469l-4.84766,4.84766c-2.36475,-1.78859 -5.23566,-2.95312 -8.43359,-2.95312c-7.82968,0 -14.30078,6.26063 -14.30078,14.20117c0,7.94054 6.46197,14.29883 14.30078,14.29883c6.5871,0 11.24569,-3.95173 12.95508,-9.40039l0.40625,-1.29883h-12.36133v-6.39648l18.8125,0.0918c0.65894,4.00106 0.22436,9.78311 -2.46094,14.60547c-2.85219,5.12205 -8.05191,9.19922 -17.35156,9.19922c-11.55454,0 -21,-9.44546 -21,-21c0,-11.56005 9.34098,-21 21,-21z"></path></g></g></svg>